<?xml version="1.0" encoding="UTF-8"?>
<svg width="32px" height="32px" viewBox="0 0 32 32" version="1.1" xmlns="http://www.w3.org/2000/svg">
    <title>A/C Icon</title>
    <g stroke="none" stroke-width="1" fill="none" fill-rule="evenodd">
        <path d="M26,8 L6,8 C4.9,8 4,8.9 4,10 L4,22 C4,23.1 4.9,24 6,24 L26,24 C27.1,24 28,23.1 28,22 L28,10 C28,8.9 27.1,8 26,8 Z" fill="#0A2463" fill-rule="nonzero"></path>
        <path d="M24,12 L24,20 L8,20 L8,12 L24,12 Z" fill="#FFFFFF" fill-rule="nonzero"></path>
        <path d="M10,14 L10,18 M14,14 L14,18 M18,14 L18,18 M22,14 L22,18" stroke="#0A2463" stroke-width="2" stroke-linecap="round"></path>
        <path d="M7,6 L25,6 M7,26 L25,26" stroke="#0A2463" stroke-width="2" stroke-linecap="round"></path>
    </g>
</svg>