<?xml version="1.0" encoding="UTF-8"?>
<svg width="32px" height="32px" viewBox="0 0 32 32" version="1.1" xmlns="http://www.w3.org/2000/svg">
    <title>Engine Icon</title>
    <g stroke="none" stroke-width="1" fill="none" fill-rule="evenodd">
        <path d="M29,13 L26,13 L26,10 L21,10 L21,13 L19,13 L19,8 L14,8 L14,13 L10,13 L10,4 L7,4 L7,13 L5,13 L5,18 L3,18 L3,23 L5,23 L5,28 L10,28 L10,23 L14,23 L14,28 L19,28 L19,23 L21,23 L21,26 L26,26 L26,23 L29,23 L29,13 Z" fill="#0A2463" fill-rule="nonzero"></path>
    </g>
</svg>