<?xml version="1.0" encoding="UTF-8"?>
<svg width="32px" height="32px" viewBox="0 0 32 32" version="1.1" xmlns="http://www.w3.org/2000/svg">
    <title>Oil Icon</title>
    <g stroke="none" stroke-width="1" fill="none" fill-rule="evenodd">
        <path d="M22,10 L18,10 L18,4 L14,4 L14,10 L10,10 C8.9,10 8,10.9 8,12 L8,26 C8,27.1 8.9,28 10,28 L22,28 C23.1,28 24,27.1 24,26 L24,12 C24,10.9 23.1,10 22,10 Z" fill="#0A2463" fill-rule="nonzero"></path>
        <path d="M17,16.28 C18.5,15.03 21,16 21,18.15 C21,19.85 19.5,21 18,22 C16.5,23 15,24.15 15,25.85 C15,28 17.5,28.97 19,27.72" stroke="#FFFFFF" stroke-width="2" stroke-linecap="round" stroke-linejoin="round"></path>
    </g>
</svg>