<?xml version="1.0" encoding="UTF-8"?>
<svg width="32px" height="32px" viewBox="0 0 32 32" version="1.1" xmlns="http://www.w3.org/2000/svg">
    <title>Parts Icon</title>
    <g stroke="none" stroke-width="1" fill="none" fill-rule="evenodd">
        <path d="M28,16 C28,18.3 27.3,20.3 26.1,22 L27,24 L23,26 L22.1,24 C20.3,25.3 18.3,26 16,26 C13.7,26 11.7,25.3 9.9,24 L9,26 L5,24 L5.9,22 C4.7,20.3 4,18.3 4,16 C4,13.7 4.7,11.7 5.9,10 L5,8 L9,6 L9.9,8 C11.7,6.7 13.7,6 16,6 C18.3,6 20.3,6.7 22.1,8 L23,6 L27,8 L26.1,10 C27.3,11.7 28,13.7 28,16 Z" fill="#0A2463" fill-rule="nonzero"></path>
        <circle fill="#FFFFFF" cx="16" cy="16" r="6"></circle>
        <circle fill="#0A2463" cx="16" cy="16" r="2"></circle>
    </g>
</svg>