<?xml version="1.0" encoding="UTF-8"?>
<svg width="32px" height="32px" viewBox="0 0 32 32" version="1.1" xmlns="http://www.w3.org/2000/svg">
    <title>Tire Icon</title>
    <g stroke="none" stroke-width="1" fill="none" fill-rule="evenodd">
        <circle fill="#0A2463" cx="16" cy="16" r="14"></circle>
        <circle fill="#FFFFFF" cx="16" cy="16" r="4"></circle>
        <path d="M16,2 L16,6 M16,26 L16,30 M2,16 L6,16 M26,16 L30,16 M6.34,6.34 L9.17,9.17 M22.83,22.83 L25.66,25.66 M6.34,25.66 L9.17,22.83 M22.83,9.17 L25.66,6.34" stroke="#FFFFFF" stroke-width="2" stroke-linecap="round"></path>
        <path d="M16,8 L16,9 M16,23 L16,24 M8,16 L9,16 M23,16 L24,16 M10.1,10.1 L10.8,10.8 M21.2,21.2 L21.9,21.9 M10.1,21.9 L10.8,21.2 M21.2,10.8 L21.9,10.1" stroke="#0A2463" stroke-width="2" stroke-linecap="round"></path>
    </g>
</svg>